<svg width="308" height="92" viewBox="0 0 308 92" fill="none" xmlns="http://www.w3.org/2000/svg">
<path d="M82.0332 29.5625C82.8389 24.3988 82.0332 20.8882 79.2502 17.7083C76.1938 14.2052 70.6685 12.7043 63.6021 12.7043H43.0866C42.3873 12.7037 41.7107 12.9541 41.1788 13.4104C40.6469 13.8668 40.2946 14.499 40.1854 15.1933L31.6443 69.6462C31.6042 69.8987 31.6191 70.157 31.6879 70.4033C31.7568 70.6495 31.878 70.8778 32.0431 71.0723C32.2082 71.2669 32.4134 71.4232 32.6444 71.5304C32.8755 71.6375 33.1269 71.693 33.3813 71.6931H46.0469L45.1747 77.2654C45.14 77.4865 45.1534 77.7126 45.2139 77.9281C45.2745 78.1435 45.3808 78.3432 45.5255 78.5134C45.6703 78.6836 45.8499 78.8202 46.0523 78.9139C46.2546 79.0075 46.4747 79.056 46.6974 79.056H57.3783C57.9902 79.0562 58.5821 78.8366 59.047 78.4367C59.5119 78.0368 59.8193 77.4831 59.9137 76.8753L60.0208 76.333L62.0314 63.5129L62.1607 62.8033C62.2559 62.1963 62.5636 61.6434 63.0285 61.2443C63.4933 60.8451 64.0847 60.626 64.6961 60.6264H66.2927C76.641 60.6264 84.7349 56.4026 87.1002 44.188C88.0907 39.0838 87.5806 34.8228 84.964 31.8286C84.1362 30.8993 83.1452 30.1311 82.0406 29.5625" fill="#60CDFF"/>
<path d="M82.0332 29.5625C82.8389 24.3988 82.0332 20.8882 79.2502 17.7083C76.1938 14.2052 70.6685 12.7043 63.6021 12.7043H43.0866C42.3873 12.7037 41.7107 12.9541 41.1788 13.4104C40.6469 13.8668 40.2946 14.499 40.1854 15.1933L31.6443 69.6462C31.6042 69.8987 31.6191 70.157 31.6879 70.4033C31.7568 70.6495 31.878 70.8778 32.0431 71.0723C32.2082 71.2669 32.4134 71.4232 32.6444 71.5304C32.8755 71.6375 33.1269 71.693 33.3813 71.6931H46.0469L49.2475 51.4135L49.1477 52.0525C49.2537 51.3584 49.6034 50.7254 50.1336 50.2682C50.6638 49.8109 51.3393 49.5596 52.0379 49.5598H58.0584C69.885 49.5598 79.1246 44.7304 81.8447 30.7699C81.9223 30.3575 81.9926 29.9563 82.0517 29.5625" fill="#008CFF"/>
<path d="M52.6477 29.6293C52.7142 29.217 52.8786 28.8269 53.1269 28.4919C53.3752 28.1569 53.7002 27.887 54.0743 27.705C54.4201 27.5378 54.7992 27.4514 55.183 27.4524H71.2672C73.0421 27.4345 74.8155 27.5588 76.5708 27.8239C77.0364 27.8982 77.4873 27.9874 77.9271 28.084C78.3669 28.1805 78.792 28.292 79.2022 28.4109L79.812 28.604C80.5764 28.855 81.3182 29.1706 82.0295 29.5476C82.8352 24.3839 82.0295 20.8734 79.2465 17.6934C76.1901 14.1903 70.6648 12.6895 63.5984 12.6895H43.0866C42.3873 12.6888 41.7107 12.9392 41.1788 13.3955C40.6469 13.8519 40.2946 14.4841 40.1854 15.1784L31.6443 69.6461C31.6042 69.8987 31.6191 70.157 31.6879 70.4032C31.7568 70.6495 31.878 70.8777 32.0431 71.0723C32.2082 71.2669 32.4134 71.4232 32.6444 71.5303C32.8755 71.6375 33.1269 71.693 33.3813 71.693H46.0469L49.2475 51.4134L52.6477 29.6293Z" fill="#002991"/>
<path d="M220.018 33.3925H206.667C206.221 33.3868 205.789 33.5412 205.448 33.8276C205.107 34.114 204.88 34.5134 204.809 34.953L199.421 69.1355C199.396 69.2942 199.406 69.4564 199.449 69.611C199.493 69.7656 199.569 69.9089 199.673 70.0313C199.778 70.1536 199.907 70.252 200.053 70.3197C200.198 70.3874 200.357 70.4228 200.517 70.4236H207.385C207.694 70.423 207.993 70.3124 208.228 70.1115C208.462 69.9107 208.618 69.6327 208.667 69.3275L210.19 59.6363C210.26 59.1955 210.486 58.7947 210.827 58.507C211.168 58.2193 211.602 58.064 212.048 58.0695H216.265C225.046 58.0695 230.111 53.8215 231.436 45.3997C232.056 41.6842 231.436 38.8233 229.74 36.7984C227.814 34.5691 224.458 33.3925 220.018 33.3925ZM221.553 45.8765C220.823 50.6633 217.169 50.6633 213.633 50.6633H211.627L213.032 41.7276C213.075 41.4655 213.209 41.2272 213.411 41.0548C213.613 40.8824 213.869 40.7873 214.135 40.7863H215.064C217.466 40.7863 219.739 40.7863 220.909 42.161C221.59 42.9784 221.801 44.1984 221.535 45.8765H221.553Z" fill="#003087"/>
<path d="M124.919 33.3926H111.587C111.151 33.402 110.731 33.5647 110.403 33.8524C110.075 34.14 109.858 34.5341 109.791 34.9655L104.398 69.148C104.373 69.3072 104.382 69.4699 104.426 69.6249C104.47 69.78 104.547 69.9237 104.652 70.0461C104.757 70.1685 104.887 70.2668 105.033 70.3341C105.179 70.4014 105.339 70.4362 105.5 70.436H111.86C112.306 70.4415 112.739 70.2862 113.08 69.9986C113.421 69.7109 113.647 69.31 113.717 68.8693L115.173 59.6487C115.242 59.2133 115.463 58.8166 115.798 58.5296C116.133 58.2425 116.558 58.0839 116.999 58.082H121.216C129.997 58.082 135.069 53.834 136.394 45.4122C137.013 41.6967 136.394 38.8357 134.691 36.8108C132.741 34.5691 129.378 33.3926 124.919 33.3926ZM126.455 45.8766C125.731 50.6634 122.077 50.6634 118.541 50.6634H116.529L117.941 41.7276C117.982 41.4662 118.115 41.2279 118.315 41.0554C118.516 40.8829 118.772 40.7876 119.037 40.7864H119.959C122.362 40.7864 124.641 40.7864 125.811 42.1611C126.511 42.9785 126.722 44.1985 126.455 45.8766Z" fill="#003087"/>
<path d="M164.762 45.7216H158.377C158.112 45.7215 157.856 45.8164 157.655 45.9891C157.454 46.1618 157.321 46.4008 157.281 46.6628L157.003 48.4463L156.557 47.827C155.17 45.8206 152.092 45.1519 149.014 45.1519C141.961 45.1519 135.936 50.496 134.772 57.9951C134.152 61.7106 135.032 65.3022 137.15 67.7978C139.094 70.089 141.874 71.0426 145.2 71.0426C146.842 71.0596 148.471 70.7453 149.99 70.1186C151.508 69.4919 152.884 68.5657 154.037 67.3953L153.752 69.1663C153.727 69.325 153.736 69.4872 153.78 69.6418C153.823 69.7964 153.9 69.9398 154.004 70.0621C154.108 70.1844 154.237 70.2828 154.383 70.3505C154.529 70.4182 154.687 70.4536 154.848 70.4543H160.57C161.016 70.4599 161.449 70.3046 161.79 70.0169C162.131 69.7292 162.357 69.3284 162.427 68.8877L165.877 47.0406C165.908 46.8779 165.903 46.7103 165.861 46.55C165.819 46.3897 165.742 46.2408 165.635 46.1142C165.528 45.9877 165.394 45.8868 165.243 45.8188C165.092 45.7508 164.927 45.7176 164.762 45.7216ZM155.869 58.1499C155.618 59.8698 154.746 61.4384 153.419 62.5606C152.091 63.6828 150.399 64.2813 148.661 64.2433C147.865 64.3238 147.061 64.2101 146.318 63.912C145.575 63.6139 144.916 63.1403 144.396 62.5316C143.876 61.9229 143.512 61.1973 143.333 60.417C143.155 59.6366 143.169 58.8248 143.373 58.0508C143.617 56.3321 144.477 54.7608 145.795 53.6304C147.112 52.5 148.796 51.8877 150.532 51.9078C151.325 51.8658 152.118 52 152.854 52.3008C153.589 52.6017 154.249 53.0617 154.786 53.6479C155.283 54.2744 155.637 55.0017 155.825 55.7793C156.012 56.5568 156.027 57.3658 155.869 58.1499Z" fill="#003087"/>
<path d="M259.841 45.7216H253.457C253.192 45.7215 252.936 45.8164 252.734 45.9891C252.533 46.1618 252.401 46.4008 252.361 46.6628L252.076 48.4463L251.63 47.827C250.249 45.8206 247.172 45.1519 244.094 45.1519C237.041 45.1519 231.015 50.496 229.851 57.9951C229.232 61.7106 230.105 65.3022 232.229 67.7978C234.174 70.089 236.954 71.0426 240.279 71.0426C241.925 71.0564 243.556 70.7376 245.076 70.1056C246.596 69.4735 247.972 68.5411 249.122 67.3643L248.837 69.1353C248.812 69.294 248.822 69.4562 248.865 69.6108C248.909 69.7654 248.985 69.9088 249.09 70.0311C249.194 70.1534 249.323 70.2518 249.469 70.3195C249.614 70.3872 249.773 70.4227 249.933 70.4234H255.68C256.126 70.4289 256.559 70.2736 256.901 69.9859C257.242 69.6983 257.468 69.2974 257.538 68.8567L260.987 47.0096C261.013 46.8467 261.002 46.6802 260.956 46.522C260.909 46.3637 260.829 46.2177 260.719 46.0945C260.609 45.9713 260.474 45.874 260.322 45.8095C260.17 45.745 260.006 45.7149 259.841 45.7216ZM250.943 58.1499C250.694 59.8699 249.824 61.4392 248.497 62.5617C247.17 63.6843 245.478 64.2824 243.741 64.2433C242.945 64.3238 242.141 64.2101 241.398 63.912C240.655 63.6139 239.995 63.1403 239.475 62.5316C238.956 61.9229 238.591 61.1973 238.413 60.417C238.235 59.6366 238.248 58.8248 238.453 58.0508C238.696 56.3332 239.556 54.7628 240.872 53.6325C242.188 52.5022 243.87 51.8892 245.605 51.9078C246.399 51.8644 247.192 51.998 247.928 52.299C248.664 52.5999 249.323 53.0607 249.859 53.6479C250.356 54.2744 250.711 55.0017 250.898 55.7793C251.085 56.5568 251.1 57.3658 250.943 58.1499Z" fill="#003087"/>
<path d="M198.759 45.7217H192.343C192.042 45.7226 191.745 45.7969 191.478 45.9382C191.212 46.0796 190.984 46.2837 190.814 46.5329L181.959 59.5681L178.212 47.0469C178.098 46.6643 177.863 46.3288 177.543 46.0901C177.223 45.8514 176.834 45.7222 176.435 45.7217H170.131C169.954 45.7221 169.78 45.7646 169.622 45.8458C169.465 45.927 169.329 46.0444 169.226 46.1885C169.124 46.3325 169.056 46.4989 169.031 46.6741C169.005 46.8492 169.021 47.0279 169.078 47.1955L176.144 67.9279L169.499 77.3034C169.381 77.4692 169.311 77.6645 169.296 77.8678C169.281 78.0711 169.323 78.2745 169.416 78.4556C169.51 78.6367 169.651 78.7886 169.826 78.8945C170 79.0004 170.2 79.0562 170.403 79.0558H176.813C177.112 79.056 177.406 78.9841 177.671 78.8461C177.937 78.7081 178.165 78.5081 178.336 78.2632L199.675 47.468C199.79 47.3007 199.858 47.1053 199.87 46.9027C199.882 46.7001 199.838 46.498 199.744 46.3183C199.65 46.1386 199.508 45.9881 199.334 45.8829C199.161 45.7778 198.962 45.722 198.759 45.7217Z" fill="#003087"/>
<path d="M267.365 34.346L261.891 69.1478C261.866 69.3065 261.876 69.4687 261.919 69.6233C261.963 69.7779 262.039 69.9212 262.143 70.0436C262.247 70.1659 262.377 70.2643 262.522 70.332C262.668 70.3997 262.826 70.4351 262.987 70.4358H268.492C268.938 70.4413 269.372 70.286 269.713 69.9984C270.054 69.7107 270.28 69.3098 270.35 68.8691L275.75 34.6866C275.775 34.5277 275.765 34.3653 275.721 34.2105C275.677 34.0558 275.6 33.9124 275.495 33.7905C275.391 33.6685 275.26 33.5708 275.114 33.5042C274.968 33.4376 274.808 33.4037 274.648 33.4047H268.492C268.222 33.3971 267.958 33.4886 267.75 33.662C267.543 33.8353 267.406 34.0786 267.365 34.346Z" fill="#003087"/>
<path d="M144.77 24.9069H140.47V12.1893H144.77C146.754 12.1893 148.38 12.7759 149.65 13.9491C150.92 15.1102 151.555 16.6401 151.555 18.539C151.555 20.4379 150.92 21.9739 149.65 23.1471C148.38 24.3203 146.754 24.9069 144.77 24.9069ZM142.412 13.8402V23.2559H144.734C146.173 23.2559 147.34 22.8266 148.235 21.9678C149.13 21.097 149.578 19.9541 149.578 18.539C149.578 17.1239 149.13 15.987 148.235 15.1283C147.34 14.2696 146.173 13.8402 144.734 13.8402H142.412Z" fill="#003087"/>
<path d="M157.415 25.1064C156.145 25.1064 155.075 24.6468 154.204 23.7276C153.333 22.8084 152.898 21.6534 152.898 20.2625C152.898 18.8595 153.333 17.6984 154.204 16.7792C155.075 15.86 156.145 15.4004 157.415 15.4004C158.697 15.4004 159.774 15.86 160.644 16.7792C161.515 17.6984 161.951 18.8595 161.951 20.2625C161.951 21.6534 161.515 22.8084 160.644 23.7276C159.774 24.6468 158.697 25.1064 157.415 25.1064ZM157.415 23.4918C158.213 23.4918 158.86 23.1955 159.356 22.6028C159.852 21.9981 160.1 21.218 160.1 20.2625C160.1 19.2949 159.852 18.5148 159.356 17.9222C158.86 17.3174 158.213 17.0151 157.415 17.0151C156.617 17.0151 155.97 17.3174 155.474 17.9222C154.99 18.5148 154.748 19.2949 154.748 20.2625C154.748 21.218 154.99 21.9981 155.474 22.6028C155.97 23.1955 156.617 23.4918 157.415 23.4918Z" fill="#003087"/>
<path d="M164.037 24.9069V15.7814L165.906 15.473V16.5071C166.353 16.1684 166.849 15.9024 167.393 15.7088C167.95 15.5032 168.506 15.4004 169.062 15.4004C170.054 15.4004 170.822 15.6786 171.366 16.235C171.923 16.7913 172.201 17.5654 172.201 18.5571V24.9069H170.314V19.0288C170.314 18.3394 170.157 17.8375 169.842 17.523C169.54 17.1965 169.068 17.0332 168.427 17.0332C167.98 17.0332 167.557 17.0937 167.157 17.2146C166.758 17.3356 166.341 17.5351 165.906 17.8133V24.9069H164.037Z" fill="#003087"/>
<path d="M176.065 22.494C176.065 22.8689 176.192 23.1652 176.446 23.3829C176.712 23.6006 177.063 23.7095 177.498 23.7095C177.885 23.7095 178.26 23.649 178.623 23.5281C178.986 23.395 179.379 23.1834 179.802 22.8931V20.5528C178.545 20.6011 177.607 20.7886 176.99 21.1152C176.374 21.4296 176.065 21.8892 176.065 22.494ZM181.852 24.9069H179.984L179.802 23.9272C179.367 24.3142 178.907 24.6105 178.424 24.8161C177.952 25.0097 177.462 25.1064 176.954 25.1064C176.168 25.1064 175.521 24.8766 175.013 24.417C174.517 23.9574 174.269 23.3587 174.269 22.621C174.269 21.6171 174.741 20.837 175.684 20.2806C176.628 19.7122 178 19.4038 179.802 19.3554V18.8111C179.802 18.2185 179.639 17.771 179.313 17.4686C178.986 17.1663 178.502 17.0151 177.861 17.0151C177.365 17.0151 176.857 17.0937 176.337 17.2509C175.829 17.396 175.315 17.6198 174.795 17.9222V16.3257C175.219 16.0475 175.727 15.8237 176.319 15.6544C176.924 15.4851 177.498 15.4004 178.043 15.4004C179.204 15.4004 180.099 15.6907 180.728 16.2712C181.357 16.8518 181.671 17.6682 181.671 18.7204V23.0564C181.671 23.4434 181.683 23.7639 181.707 24.0179C181.732 24.2719 181.78 24.5682 181.852 24.9069Z" fill="#003087"/>
<path d="M183.304 17.0514V15.6H184.664V13.5862L186.551 13.2959V15.6H189.781L189.527 17.0514H186.551V22.0223C186.551 22.4819 186.678 22.8387 186.932 23.0927C187.198 23.3466 187.561 23.4736 188.021 23.4736C188.456 23.4736 188.831 23.4434 189.146 23.3829C189.472 23.3104 189.817 23.2015 190.18 23.0564V24.5984C189.841 24.7678 189.466 24.8887 189.055 24.9613C188.656 25.0459 188.226 25.0883 187.767 25.0883C186.811 25.0883 186.055 24.8403 185.499 24.3445C184.943 23.8486 184.664 23.1471 184.664 22.24V17.0514H183.304Z" fill="#003087"/>
<path d="M195.713 16.8881C195.048 16.8881 194.485 17.1058 194.026 17.5412C193.566 17.9766 193.276 18.5692 193.155 19.3191H197.836V19.2284C197.836 18.5148 197.648 17.9464 197.273 17.523C196.898 17.0997 196.378 16.8881 195.713 16.8881ZM199.269 22.9112V24.4896C198.821 24.6952 198.356 24.8464 197.872 24.9431C197.4 25.052 196.898 25.1064 196.366 25.1064C194.891 25.1064 193.681 24.6529 192.738 23.7458C191.806 22.8266 191.341 21.6534 191.341 20.2262C191.341 18.8474 191.758 17.6984 192.593 16.7792C193.427 15.86 194.479 15.4004 195.749 15.4004C196.983 15.4004 197.938 15.7995 198.616 16.5978C199.305 17.384 199.65 18.4604 199.65 19.8271C199.65 20.0085 199.65 20.1476 199.65 20.2444C199.65 20.329 199.644 20.4137 199.632 20.4983H193.101C193.173 21.4175 193.524 22.1553 194.153 22.7117C194.794 23.2559 195.598 23.5281 196.566 23.5281C197.146 23.5281 197.63 23.4797 198.017 23.3829C198.416 23.2862 198.833 23.1289 199.269 22.9112Z" fill="#003087"/>
<path d="M209.156 22.494L211.261 15.6H212.549L214.708 22.5121L216.812 15.6H218.554L215.379 24.9613H213.946L211.823 18.1943L209.719 24.9613H208.285L205.111 15.6H207.016L209.156 22.494Z" fill="#003087"/>
<path d="M221.076 13.3322C220.737 13.3322 220.453 13.2173 220.223 12.9875C219.993 12.7577 219.878 12.4796 219.878 12.153C219.878 11.8264 219.993 11.5483 220.223 11.3185C220.453 11.0887 220.737 10.9738 221.076 10.9738C221.414 10.9738 221.698 11.0887 221.928 11.3185C222.158 11.5483 222.273 11.8264 222.273 12.153C222.273 12.4796 222.158 12.7577 221.928 12.9875C221.698 13.2173 221.414 13.3322 221.076 13.3322ZM222.001 24.9069H220.132V15.7814L222.001 15.473V24.9069Z" fill="#003087"/>
<path d="M223.779 17.0514V15.6H225.139V13.5862L227.026 13.2959V15.6H230.255L230.001 17.0514H227.026V22.0223C227.026 22.4819 227.153 22.8387 227.407 23.0927C227.673 23.3466 228.036 23.4736 228.496 23.4736C228.931 23.4736 229.306 23.4434 229.621 23.3829C229.947 23.3104 230.292 23.2015 230.655 23.0564V24.5984C230.316 24.7678 229.941 24.8887 229.53 24.9613C229.131 25.0459 228.701 25.0883 228.242 25.0883C227.286 25.0883 226.53 24.8403 225.974 24.3445C225.418 23.8486 225.139 23.1471 225.139 22.24V17.0514H223.779Z" fill="#003087"/>
<path d="M232.578 24.9069V10.6291L234.446 10.3569V16.5071C234.894 16.1684 235.39 15.9024 235.934 15.7088C236.49 15.5032 237.047 15.4004 237.603 15.4004C238.595 15.4004 239.363 15.6786 239.907 16.235C240.463 16.7913 240.742 17.5654 240.742 18.5571V24.9069H238.855V19.0288C238.855 18.3394 238.698 17.8375 238.383 17.523C238.081 17.1965 237.609 17.0332 236.968 17.0332C236.521 17.0332 236.097 17.0937 235.698 17.2146C235.299 17.3356 234.882 17.5351 234.446 17.8133V24.9069H232.578Z" fill="#003087"/>
</svg>
